# Blender v2.90.1 OBJ File: ''
# www.blender.org
mtllib karpit_triangular.mtl
o Cube.001
v 0.500000 -0.025000 -0.500000
v -0.500000 -0.025000 0.500000
v -0.500000 -0.025000 -0.500000
v -0.500000 0.025000 -0.500000
v -0.500000 0.025000 0.500000
v 0.500000 0.025000 -0.500000
vt 0.021681 0.033289
vt 0.920728 0.007592
vt 0.523790 0.397684
vt 0.500248 0.535788
vt 0.987761 0.983224
vt 0.006095 0.975881
vt 0.936070 0.000000
vt 0.968035 0.000000
vt 0.968035 0.707107
vt 0.936070 0.707107
vt 0.029533 0.458299
vt 0.928713 0.437787
vt 0.929442 0.469744
vt 0.000973 0.490924
vt 1.000000 0.707107
vt 0.968035 0.000000
vt 1.000000 0.000000
vn 0.6325 -0.4472 0.6325
vn 0.0000 -1.0000 -0.0000
vn 0.0000 1.0000 0.0000
vn 0.6325 0.4472 0.6325
vn -1.0000 0.0000 0.0000
vn 0.0000 0.0000 -1.0000
usemtl Material.001
s 1
f 1/1/1 2/2/1 3/3/2
f 4/4/3 5/5/4 6/6/4
f 2/7/5 5/8/5 4/9/5 3/10/5
f 2/11/1 1/12/1 6/13/4 5/14/4
f 3/15/6 4/9/6 6/16/6 1/17/6
